# xmcd
#
# Track frame offsets: 
#        150
#        23245
#        40649
#        74827
#        92239
#        111765
#        131889
#        151393
#        163977
#        191301
#        207799
#        232003
#        251717
#        271825
#        292877
#        315043
#
# Disc length: 4298 seconds
#
# Revision: 2
# Processed by: cddbd v1.5.2PL0 Copyright (c) Steve Scherf et al.
# Submitted via: ExactAudioCopyFreeDBPlugin 1.0
#
DISCID=e010c810
DTITLE=CDS制作 - TEST-CD-04B【试音极品碟】
DYEAR=2011
DGENRE=stereo
TTITLE0=春之圆舞曲
TTITLE1=原乡人
TTITLE2=白毛女随想曲
TTITLE3=女儿情
TTITLE4=无奈
TTITLE5=冰山上的雪莲
TTITLE6=三套车
TTITLE7=初恋的地方
TTITLE8=世博唱红之昂(星)
TTITLE9=少林少林
TTITLE10=今天是你的生日
TTITLE11=雨季
TTITLE12=渔家姑娘在海边
TTITLE13=下辈不做女人
TTITLE14=鸿雁
TTITLE15=试机10号
EXTD=
EXTT0=
EXTT1=
EXTT2=
EXTT3=
EXTT4=
EXTT5=
EXTT6=
EXTT7=
EXTT8=
EXTT9=
EXTT10=
EXTT11=
EXTT12=
EXTT13=
EXTT14=
EXTT15=
PLAYORDER=
